<svg width="94" height="25" viewBox="0 0 94 25" fill="none" xmlns="http://www.w3.org/2000/svg">
<g id="Logo">
<g id="Vector">
<path d="M0 8.90001C0 7.54487 1.10042 6.44718 2.45892 6.44718H12.1252V11.3607H2.45892C1.10042 11.3607 0 10.263 0 8.90791V8.90159V8.90001ZM24.2503 21.7975C24.2503 23.1527 23.1499 24.2503 21.7914 24.2503H2.45892C1.10042 24.2503 0 23.1527 0 21.7975V21.7896C0 20.4345 1.10042 19.3368 2.45892 19.3368H21.7914C23.1499 19.3368 24.2503 20.4345 24.2503 21.7896V21.7959V21.7975ZM24.2503 15.3519C24.2503 16.7071 23.1499 17.8048 21.7914 17.8048H12.1252V12.8912H21.7914C23.1499 12.8912 24.2503 13.9889 24.2503 15.344V15.3503V15.3519ZM24.2503 2.46073C24.2503 3.81587 23.1499 4.91356 21.7914 4.91356H2.45892C1.10042 4.91356 0 3.81587 0 2.46073V2.45283C0 1.09769 1.10042 0 2.45892 0H21.7914C23.1499 0 24.2503 1.09769 24.2503 2.45283V2.45915V2.46073Z" fill="#363947"/>
<path d="M0 8.90001C0 7.54487 1.10042 6.44718 2.45892 6.44718H12.1252V11.3607H2.45892C1.10042 11.3607 0 10.263 0 8.90791V8.90159V8.90001ZM24.2503 21.7975C24.2503 23.1527 23.1499 24.2503 21.7914 24.2503H2.45892C1.10042 24.2503 0 23.1527 0 21.7975V21.7896C0 20.4345 1.10042 19.3368 2.45892 19.3368H21.7914C23.1499 19.3368 24.2503 20.4345 24.2503 21.7896V21.7959V21.7975ZM24.2503 15.3519C24.2503 16.7071 23.1499 17.8048 21.7914 17.8048H12.1252V12.8912H21.7914C23.1499 12.8912 24.2503 13.9889 24.2503 15.344V15.3503V15.3519ZM24.2503 2.46073C24.2503 3.81587 23.1499 4.91356 21.7914 4.91356H2.45892C1.10042 4.91356 0 3.81587 0 2.46073V2.45283C0 1.09769 1.10042 0 2.45892 0H21.7914C23.1499 0 24.2503 1.09769 24.2503 2.45283V2.45915V2.46073Z" fill="white"/>
<path d="M0 8.90001C0 7.54487 1.10042 6.44718 2.45892 6.44718H12.1252V11.3607H2.45892C1.10042 11.3607 0 10.263 0 8.90791V8.90159V8.90001ZM24.2503 21.7975C24.2503 23.1527 23.1499 24.2503 21.7914 24.2503H2.45892C1.10042 24.2503 0 23.1527 0 21.7975V21.7896C0 20.4345 1.10042 19.3368 2.45892 19.3368H21.7914C23.1499 19.3368 24.2503 20.4345 24.2503 21.7896V21.7959V21.7975ZM24.2503 15.3519C24.2503 16.7071 23.1499 17.8048 21.7914 17.8048H12.1252V12.8912H21.7914C23.1499 12.8912 24.2503 13.9889 24.2503 15.344V15.3503V15.3519ZM24.2503 2.46073C24.2503 3.81587 23.1499 4.91356 21.7914 4.91356H2.45892C1.10042 4.91356 0 3.81587 0 2.46073V2.45283C0 1.09769 1.10042 0 2.45892 0H21.7914C23.1499 0 24.2503 1.09769 24.2503 2.45283V2.45915V2.46073Z" fill="#909BAA"/>
<path d="M0 8.90001C0 7.54487 1.10042 6.44718 2.45892 6.44718H12.1252V11.3607H2.45892C1.10042 11.3607 0 10.263 0 8.90791V8.90159V8.90001ZM24.2503 21.7975C24.2503 23.1527 23.1499 24.2503 21.7914 24.2503H2.45892C1.10042 24.2503 0 23.1527 0 21.7975V21.7896C0 20.4345 1.10042 19.3368 2.45892 19.3368H21.7914C23.1499 19.3368 24.2503 20.4345 24.2503 21.7896V21.7959V21.7975ZM24.2503 15.3519C24.2503 16.7071 23.1499 17.8048 21.7914 17.8048H12.1252V12.8912H21.7914C23.1499 12.8912 24.2503 13.9889 24.2503 15.344V15.3503V15.3519ZM24.2503 2.46073C24.2503 3.81587 23.1499 4.91356 21.7914 4.91356H2.45892C1.10042 4.91356 0 3.81587 0 2.46073V2.45283C0 1.09769 1.10042 0 2.45892 0H21.7914C23.1499 0 24.2503 1.09769 24.2503 2.45283V2.45915V2.46073Z" fill="#4F525E"/>
</g>
<g id="Vector_2">
<path d="M49.6746 12.7758C48.3009 11.6776 46.5968 11.349 45.1143 11.1291C45.0042 11.1291 44.8953 11.0754 44.784 11.0754C44.2335 11.0216 43.7393 10.9104 43.1913 10.8005C41.5913 10.605 40.527 9.70473 41.2121 8.00183C41.6696 7.027 43.4512 6.97149 44.5785 6.97149H48.6044C49.0436 6.97149 49.622 6.84987 50.0611 6.52004C50.7767 5.91657 50.8844 4.81837 50.2801 4.10618C50.17 3.99624 50.0611 3.88752 49.9498 3.83132C49.5107 3.55646 49.0703 3.55646 48.6299 3.55646H44.9479C44.1246 3.55646 43.2439 3.55646 42.4206 3.66641C41.2121 3.83132 40.2775 4.21612 39.5081 4.81837C38.6848 5.42183 38.1343 6.30138 37.8041 7.28842C37.5288 8.27547 37.4738 9.31871 37.694 10.3082C37.8591 11.1303 38.2444 11.8987 38.8475 12.5034C39.3417 12.9969 40.0561 13.3817 41.0457 13.7103C41.9252 13.9852 42.8035 14.1489 43.6843 14.26C43.8494 14.26 44.0145 14.3138 44.1785 14.3138C45.2782 14.4237 46.4329 14.5325 47.2562 15.2471C47.5314 15.4657 47.7504 15.7968 47.8067 16.1804C47.8605 16.6189 47.8605 17.0587 47.6966 17.4423C47.5865 17.7721 47.4213 17.992 47.1461 18.2107C46.8158 18.4293 46.4868 18.5405 46.1014 18.6492C45.2782 18.8679 44.3436 18.8679 43.4629 18.8679H39.672C39.1778 18.8679 38.6836 19.0865 38.4084 19.5263C38.0781 19.9649 37.9692 20.5134 38.1331 21.0631C38.2983 21.5566 38.6273 21.9414 39.1215 22.1613C39.3405 22.215 39.5607 22.2712 39.8371 22.2712H44.2873C46.1014 22.2712 48.4085 22.0526 49.8923 20.4596C50.5516 19.745 50.992 18.8129 51.1009 17.8246C51.266 16.7264 51.211 15.7394 50.9358 14.8611C50.7718 13.9852 50.3315 13.2718 49.6721 12.777L49.6746 12.7758ZM60.5555 6.95981C60.9946 6.95981 61.435 6.7949 61.709 6.46629C62.0393 6.13646 62.2032 5.69791 62.1481 5.25936C62.1481 4.82081 61.983 4.38104 61.6539 4.05243C61.3237 3.77757 60.8845 3.61388 60.4454 3.61388H56.8735V1.80104C56.8735 1.36249 56.7083 0.922716 56.3793 0.594108C56.049 0.264279 55.6637 0.100586 55.1707 0.100586C54.7315 0.100586 54.2912 0.265501 53.9621 0.650301C53.6869 0.980131 53.5229 1.41868 53.5229 1.85723V15.9055C53.5229 17.8796 53.9621 19.4726 54.7866 20.5158C55.6661 21.6678 57.1487 22.2175 59.183 22.2175H60.3915C60.8307 22.2175 61.2711 22.0526 61.6001 21.7239C61.9304 21.3941 62.0943 20.9556 62.0943 20.517C62.0943 20.0785 61.9292 19.6387 61.6552 19.3101C61.3249 18.9803 60.8857 18.7604 60.4466 18.7604H59.238C58.3034 18.7604 57.6992 18.5417 57.4239 18.1569C57.0936 17.6634 56.8735 16.895 56.8735 15.8518V6.95737H60.5518L60.5555 6.95981ZM75.8327 5.31311C75.3936 4.81959 74.7881 4.37982 74.1838 4.10618C73.5245 3.83132 72.8101 3.66763 72.0406 3.66763H66.1604C65.7213 3.66763 65.2809 3.83254 65.0069 4.16115C64.6766 4.49098 64.5127 4.92953 64.5678 5.36808C64.5678 6.35513 65.2271 7.01478 66.2718 7.01478H72.0419C72.6462 7.01478 73.0865 7.23345 73.4156 7.67322C73.7997 8.16675 73.966 8.77143 73.966 9.53981V11.1303H69.0755C68.306 11.1303 67.5904 11.2952 66.9323 11.5689C65.6124 12.1723 64.5702 13.2156 64.0197 14.5325C63.4693 15.9593 63.4693 17.496 64.0197 18.9228C64.295 19.5813 64.6791 20.1847 65.1733 20.6783C65.6675 21.1718 66.273 21.6116 66.9311 21.8852C67.5904 22.1601 68.3599 22.3238 69.0742 22.3238H75.1734C75.7239 22.3238 76.2731 22.1051 76.6584 21.7203C77.0425 21.3367 77.2627 20.7332 77.2627 20.1835V9.42865C77.2627 8.66027 77.1526 7.94564 76.8786 7.23345C76.656 6.41132 76.2707 5.80786 75.8327 5.31311ZM73.9073 14.3675V18.8679H69.0167C68.7415 18.8679 68.4125 18.8141 68.1372 18.703C67.862 18.593 67.643 18.4281 67.4216 18.2094C67.2026 17.9908 67.0375 17.7709 66.9825 17.4948C66.8724 17.2199 66.8173 16.9451 66.8173 16.6165C66.8173 16.2879 66.8711 16.013 66.9825 15.7382C67.0926 15.4633 67.2577 15.2446 67.4216 15.0235C67.6406 14.8049 67.8608 14.64 68.1372 14.53C68.4125 14.4201 68.6877 14.3651 68.9605 14.3651H73.9073V14.3675ZM81.6567 3.1331C81.2175 3.1331 80.7772 3.29802 80.4481 3.62662C80.1178 3.95645 79.9539 4.395 79.9539 4.83355V20.5146C79.9539 20.9531 80.119 21.3929 80.3931 21.7215C80.9973 22.3799 82.0971 22.4361 82.7552 21.7753L82.809 21.7215C83.1393 21.3917 83.3032 20.8994 83.3032 20.4596V4.83355C83.3032 4.34003 83.1381 3.90026 82.809 3.57165C82.4799 3.29679 82.0958 3.13188 81.6567 3.13188V3.1331ZM93.526 19.4726L88.3601 12.8882L92.9767 6.63243C93.252 6.24885 93.3608 5.8103 93.307 5.37053C93.2532 4.93198 93.0318 4.5484 92.6477 4.27232C92.3174 3.99746 91.8244 3.88874 91.4391 3.94249C90.9999 3.99624 90.6158 4.27232 90.3394 4.60092L84.9534 11.8999C84.5142 12.5034 84.5142 13.3829 85.0072 13.9852L90.9424 21.6128C91.4929 22.3274 92.5351 22.4911 93.2507 21.9426C93.2507 21.9426 93.3046 21.9426 93.3046 21.8889C93.9639 21.2842 94.074 20.2409 93.526 19.4726Z" fill="#363947"/>
<path d="M49.6746 12.7758C48.3009 11.6776 46.5968 11.349 45.1143 11.1291C45.0042 11.1291 44.8953 11.0754 44.784 11.0754C44.2335 11.0216 43.7393 10.9104 43.1913 10.8005C41.5913 10.605 40.527 9.70473 41.2121 8.00183C41.6696 7.027 43.4512 6.97149 44.5785 6.97149H48.6044C49.0436 6.97149 49.622 6.84987 50.0611 6.52004C50.7767 5.91657 50.8844 4.81837 50.2801 4.10618C50.17 3.99624 50.0611 3.88752 49.9498 3.83132C49.5107 3.55646 49.0703 3.55646 48.6299 3.55646H44.9479C44.1246 3.55646 43.2439 3.55646 42.4206 3.66641C41.2121 3.83132 40.2775 4.21612 39.5081 4.81837C38.6848 5.42183 38.1343 6.30138 37.8041 7.28842C37.5288 8.27547 37.4738 9.31871 37.694 10.3082C37.8591 11.1303 38.2444 11.8987 38.8475 12.5034C39.3417 12.9969 40.0561 13.3817 41.0457 13.7103C41.9252 13.9852 42.8035 14.1489 43.6843 14.26C43.8494 14.26 44.0145 14.3138 44.1785 14.3138C45.2782 14.4237 46.4329 14.5325 47.2562 15.2471C47.5314 15.4657 47.7504 15.7968 47.8067 16.1804C47.8605 16.6189 47.8605 17.0587 47.6966 17.4423C47.5865 17.7721 47.4213 17.992 47.1461 18.2107C46.8158 18.4293 46.4868 18.5405 46.1014 18.6492C45.2782 18.8679 44.3436 18.8679 43.4629 18.8679H39.672C39.1778 18.8679 38.6836 19.0865 38.4084 19.5263C38.0781 19.9649 37.9692 20.5134 38.1331 21.0631C38.2983 21.5566 38.6273 21.9414 39.1215 22.1613C39.3405 22.215 39.5607 22.2712 39.8371 22.2712H44.2873C46.1014 22.2712 48.4085 22.0526 49.8923 20.4596C50.5516 19.745 50.992 18.8129 51.1009 17.8246C51.266 16.7264 51.211 15.7394 50.9358 14.8611C50.7718 13.9852 50.3315 13.2718 49.6721 12.777L49.6746 12.7758ZM60.5555 6.95981C60.9946 6.95981 61.435 6.7949 61.709 6.46629C62.0393 6.13646 62.2032 5.69791 62.1481 5.25936C62.1481 4.82081 61.983 4.38104 61.6539 4.05243C61.3237 3.77757 60.8845 3.61388 60.4454 3.61388H56.8735V1.80104C56.8735 1.36249 56.7083 0.922716 56.3793 0.594108C56.049 0.264279 55.6637 0.100586 55.1707 0.100586C54.7315 0.100586 54.2912 0.265501 53.9621 0.650301C53.6869 0.980131 53.5229 1.41868 53.5229 1.85723V15.9055C53.5229 17.8796 53.9621 19.4726 54.7866 20.5158C55.6661 21.6678 57.1487 22.2175 59.183 22.2175H60.3915C60.8307 22.2175 61.2711 22.0526 61.6001 21.7239C61.9304 21.3941 62.0943 20.9556 62.0943 20.517C62.0943 20.0785 61.9292 19.6387 61.6552 19.3101C61.3249 18.9803 60.8857 18.7604 60.4466 18.7604H59.238C58.3034 18.7604 57.6992 18.5417 57.4239 18.1569C57.0936 17.6634 56.8735 16.895 56.8735 15.8518V6.95737H60.5518L60.5555 6.95981ZM75.8327 5.31311C75.3936 4.81959 74.7881 4.37982 74.1838 4.10618C73.5245 3.83132 72.8101 3.66763 72.0406 3.66763H66.1604C65.7213 3.66763 65.2809 3.83254 65.0069 4.16115C64.6766 4.49098 64.5127 4.92953 64.5678 5.36808C64.5678 6.35513 65.2271 7.01478 66.2718 7.01478H72.0419C72.6462 7.01478 73.0865 7.23345 73.4156 7.67322C73.7997 8.16675 73.966 8.77143 73.966 9.53981V11.1303H69.0755C68.306 11.1303 67.5904 11.2952 66.9323 11.5689C65.6124 12.1723 64.5702 13.2156 64.0197 14.5325C63.4693 15.9593 63.4693 17.496 64.0197 18.9228C64.295 19.5813 64.6791 20.1847 65.1733 20.6783C65.6675 21.1718 66.273 21.6116 66.9311 21.8852C67.5904 22.1601 68.3599 22.3238 69.0742 22.3238H75.1734C75.7239 22.3238 76.2731 22.1051 76.6584 21.7203C77.0425 21.3367 77.2627 20.7332 77.2627 20.1835V9.42865C77.2627 8.66027 77.1526 7.94564 76.8786 7.23345C76.656 6.41132 76.2707 5.80786 75.8327 5.31311ZM73.9073 14.3675V18.8679H69.0167C68.7415 18.8679 68.4125 18.8141 68.1372 18.703C67.862 18.593 67.643 18.4281 67.4216 18.2094C67.2026 17.9908 67.0375 17.7709 66.9825 17.4948C66.8724 17.2199 66.8173 16.9451 66.8173 16.6165C66.8173 16.2879 66.8711 16.013 66.9825 15.7382C67.0926 15.4633 67.2577 15.2446 67.4216 15.0235C67.6406 14.8049 67.8608 14.64 68.1372 14.53C68.4125 14.4201 68.6877 14.3651 68.9605 14.3651H73.9073V14.3675ZM81.6567 3.1331C81.2175 3.1331 80.7772 3.29802 80.4481 3.62662C80.1178 3.95645 79.9539 4.395 79.9539 4.83355V20.5146C79.9539 20.9531 80.119 21.3929 80.3931 21.7215C80.9973 22.3799 82.0971 22.4361 82.7552 21.7753L82.809 21.7215C83.1393 21.3917 83.3032 20.8994 83.3032 20.4596V4.83355C83.3032 4.34003 83.1381 3.90026 82.809 3.57165C82.4799 3.29679 82.0958 3.13188 81.6567 3.13188V3.1331ZM93.526 19.4726L88.3601 12.8882L92.9767 6.63243C93.252 6.24885 93.3608 5.8103 93.307 5.37053C93.2532 4.93198 93.0318 4.5484 92.6477 4.27232C92.3174 3.99746 91.8244 3.88874 91.4391 3.94249C90.9999 3.99624 90.6158 4.27232 90.3394 4.60092L84.9534 11.8999C84.5142 12.5034 84.5142 13.3829 85.0072 13.9852L90.9424 21.6128C91.4929 22.3274 92.5351 22.4911 93.2507 21.9426C93.2507 21.9426 93.3046 21.9426 93.3046 21.8889C93.9639 21.2842 94.074 20.2409 93.526 19.4726Z" fill="white"/>
<path d="M49.6746 12.7758C48.3009 11.6776 46.5968 11.349 45.1143 11.1291C45.0042 11.1291 44.8953 11.0754 44.784 11.0754C44.2335 11.0216 43.7393 10.9104 43.1913 10.8005C41.5913 10.605 40.527 9.70473 41.2121 8.00183C41.6696 7.027 43.4512 6.97149 44.5785 6.97149H48.6044C49.0436 6.97149 49.622 6.84987 50.0611 6.52004C50.7767 5.91657 50.8844 4.81837 50.2801 4.10618C50.17 3.99624 50.0611 3.88752 49.9498 3.83132C49.5107 3.55646 49.0703 3.55646 48.6299 3.55646H44.9479C44.1246 3.55646 43.2439 3.55646 42.4206 3.66641C41.2121 3.83132 40.2775 4.21612 39.5081 4.81837C38.6848 5.42183 38.1343 6.30138 37.8041 7.28842C37.5288 8.27547 37.4738 9.31871 37.694 10.3082C37.8591 11.1303 38.2444 11.8987 38.8475 12.5034C39.3417 12.9969 40.0561 13.3817 41.0457 13.7103C41.9252 13.9852 42.8035 14.1489 43.6843 14.26C43.8494 14.26 44.0145 14.3138 44.1785 14.3138C45.2782 14.4237 46.4329 14.5325 47.2562 15.2471C47.5314 15.4657 47.7504 15.7968 47.8067 16.1804C47.8605 16.6189 47.8605 17.0587 47.6966 17.4423C47.5865 17.7721 47.4213 17.992 47.1461 18.2107C46.8158 18.4293 46.4868 18.5405 46.1014 18.6492C45.2782 18.8679 44.3436 18.8679 43.4629 18.8679H39.672C39.1778 18.8679 38.6836 19.0865 38.4084 19.5263C38.0781 19.9649 37.9692 20.5134 38.1331 21.0631C38.2983 21.5566 38.6273 21.9414 39.1215 22.1613C39.3405 22.215 39.5607 22.2712 39.8371 22.2712H44.2873C46.1014 22.2712 48.4085 22.0526 49.8923 20.4596C50.5516 19.745 50.992 18.8129 51.1009 17.8246C51.266 16.7264 51.211 15.7394 50.9358 14.8611C50.7718 13.9852 50.3315 13.2718 49.6721 12.777L49.6746 12.7758ZM60.5555 6.95981C60.9946 6.95981 61.435 6.7949 61.709 6.46629C62.0393 6.13646 62.2032 5.69791 62.1481 5.25936C62.1481 4.82081 61.983 4.38104 61.6539 4.05243C61.3237 3.77757 60.8845 3.61388 60.4454 3.61388H56.8735V1.80104C56.8735 1.36249 56.7083 0.922716 56.3793 0.594108C56.049 0.264279 55.6637 0.100586 55.1707 0.100586C54.7315 0.100586 54.2912 0.265501 53.9621 0.650301C53.6869 0.980131 53.5229 1.41868 53.5229 1.85723V15.9055C53.5229 17.8796 53.9621 19.4726 54.7866 20.5158C55.6661 21.6678 57.1487 22.2175 59.183 22.2175H60.3915C60.8307 22.2175 61.2711 22.0526 61.6001 21.7239C61.9304 21.3941 62.0943 20.9556 62.0943 20.517C62.0943 20.0785 61.9292 19.6387 61.6552 19.3101C61.3249 18.9803 60.8857 18.7604 60.4466 18.7604H59.238C58.3034 18.7604 57.6992 18.5417 57.4239 18.1569C57.0936 17.6634 56.8735 16.895 56.8735 15.8518V6.95737H60.5518L60.5555 6.95981ZM75.8327 5.31311C75.3936 4.81959 74.7881 4.37982 74.1838 4.10618C73.5245 3.83132 72.8101 3.66763 72.0406 3.66763H66.1604C65.7213 3.66763 65.2809 3.83254 65.0069 4.16115C64.6766 4.49098 64.5127 4.92953 64.5678 5.36808C64.5678 6.35513 65.2271 7.01478 66.2718 7.01478H72.0419C72.6462 7.01478 73.0865 7.23345 73.4156 7.67322C73.7997 8.16675 73.966 8.77143 73.966 9.53981V11.1303H69.0755C68.306 11.1303 67.5904 11.2952 66.9323 11.5689C65.6124 12.1723 64.5702 13.2156 64.0197 14.5325C63.4693 15.9593 63.4693 17.496 64.0197 18.9228C64.295 19.5813 64.6791 20.1847 65.1733 20.6783C65.6675 21.1718 66.273 21.6116 66.9311 21.8852C67.5904 22.1601 68.3599 22.3238 69.0742 22.3238H75.1734C75.7239 22.3238 76.2731 22.1051 76.6584 21.7203C77.0425 21.3367 77.2627 20.7332 77.2627 20.1835V9.42865C77.2627 8.66027 77.1526 7.94564 76.8786 7.23345C76.656 6.41132 76.2707 5.80786 75.8327 5.31311ZM73.9073 14.3675V18.8679H69.0167C68.7415 18.8679 68.4125 18.8141 68.1372 18.703C67.862 18.593 67.643 18.4281 67.4216 18.2094C67.2026 17.9908 67.0375 17.7709 66.9825 17.4948C66.8724 17.2199 66.8173 16.9451 66.8173 16.6165C66.8173 16.2879 66.8711 16.013 66.9825 15.7382C67.0926 15.4633 67.2577 15.2446 67.4216 15.0235C67.6406 14.8049 67.8608 14.64 68.1372 14.53C68.4125 14.4201 68.6877 14.3651 68.9605 14.3651H73.9073V14.3675ZM81.6567 3.1331C81.2175 3.1331 80.7772 3.29802 80.4481 3.62662C80.1178 3.95645 79.9539 4.395 79.9539 4.83355V20.5146C79.9539 20.9531 80.119 21.3929 80.3931 21.7215C80.9973 22.3799 82.0971 22.4361 82.7552 21.7753L82.809 21.7215C83.1393 21.3917 83.3032 20.8994 83.3032 20.4596V4.83355C83.3032 4.34003 83.1381 3.90026 82.809 3.57165C82.4799 3.29679 82.0958 3.13188 81.6567 3.13188V3.1331ZM93.526 19.4726L88.3601 12.8882L92.9767 6.63243C93.252 6.24885 93.3608 5.8103 93.307 5.37053C93.2532 4.93198 93.0318 4.5484 92.6477 4.27232C92.3174 3.99746 91.8244 3.88874 91.4391 3.94249C90.9999 3.99624 90.6158 4.27232 90.3394 4.60092L84.9534 11.8999C84.5142 12.5034 84.5142 13.3829 85.0072 13.9852L90.9424 21.6128C91.4929 22.3274 92.5351 22.4911 93.2507 21.9426C93.2507 21.9426 93.3046 21.9426 93.3046 21.8889C93.9639 21.2842 94.074 20.2409 93.526 19.4726Z" fill="#909BAA"/>
<path d="M49.6746 12.7758C48.3009 11.6776 46.5968 11.349 45.1143 11.1291C45.0042 11.1291 44.8953 11.0754 44.784 11.0754C44.2335 11.0216 43.7393 10.9104 43.1913 10.8005C41.5913 10.605 40.527 9.70473 41.2121 8.00183C41.6696 7.027 43.4512 6.97149 44.5785 6.97149H48.6044C49.0436 6.97149 49.622 6.84987 50.0611 6.52004C50.7767 5.91657 50.8844 4.81837 50.2801 4.10618C50.17 3.99624 50.0611 3.88752 49.9498 3.83132C49.5107 3.55646 49.0703 3.55646 48.6299 3.55646H44.9479C44.1246 3.55646 43.2439 3.55646 42.4206 3.66641C41.2121 3.83132 40.2775 4.21612 39.5081 4.81837C38.6848 5.42183 38.1343 6.30138 37.8041 7.28842C37.5288 8.27547 37.4738 9.31871 37.694 10.3082C37.8591 11.1303 38.2444 11.8987 38.8475 12.5034C39.3417 12.9969 40.0561 13.3817 41.0457 13.7103C41.9252 13.9852 42.8035 14.1489 43.6843 14.26C43.8494 14.26 44.0145 14.3138 44.1785 14.3138C45.2782 14.4237 46.4329 14.5325 47.2562 15.2471C47.5314 15.4657 47.7504 15.7968 47.8067 16.1804C47.8605 16.6189 47.8605 17.0587 47.6966 17.4423C47.5865 17.7721 47.4213 17.992 47.1461 18.2107C46.8158 18.4293 46.4868 18.5405 46.1014 18.6492C45.2782 18.8679 44.3436 18.8679 43.4629 18.8679H39.672C39.1778 18.8679 38.6836 19.0865 38.4084 19.5263C38.0781 19.9649 37.9692 20.5134 38.1331 21.0631C38.2983 21.5566 38.6273 21.9414 39.1215 22.1613C39.3405 22.215 39.5607 22.2712 39.8371 22.2712H44.2873C46.1014 22.2712 48.4085 22.0526 49.8923 20.4596C50.5516 19.745 50.992 18.8129 51.1009 17.8246C51.266 16.7264 51.211 15.7394 50.9358 14.8611C50.7718 13.9852 50.3315 13.2718 49.6721 12.777L49.6746 12.7758ZM60.5555 6.95981C60.9946 6.95981 61.435 6.7949 61.709 6.46629C62.0393 6.13646 62.2032 5.69791 62.1481 5.25936C62.1481 4.82081 61.983 4.38104 61.6539 4.05243C61.3237 3.77757 60.8845 3.61388 60.4454 3.61388H56.8735V1.80104C56.8735 1.36249 56.7083 0.922716 56.3793 0.594108C56.049 0.264279 55.6637 0.100586 55.1707 0.100586C54.7315 0.100586 54.2912 0.265501 53.9621 0.650301C53.6869 0.980131 53.5229 1.41868 53.5229 1.85723V15.9055C53.5229 17.8796 53.9621 19.4726 54.7866 20.5158C55.6661 21.6678 57.1487 22.2175 59.183 22.2175H60.3915C60.8307 22.2175 61.2711 22.0526 61.6001 21.7239C61.9304 21.3941 62.0943 20.9556 62.0943 20.517C62.0943 20.0785 61.9292 19.6387 61.6552 19.3101C61.3249 18.9803 60.8857 18.7604 60.4466 18.7604H59.238C58.3034 18.7604 57.6992 18.5417 57.4239 18.1569C57.0936 17.6634 56.8735 16.895 56.8735 15.8518V6.95737H60.5518L60.5555 6.95981ZM75.8327 5.31311C75.3936 4.81959 74.7881 4.37982 74.1838 4.10618C73.5245 3.83132 72.8101 3.66763 72.0406 3.66763H66.1604C65.7213 3.66763 65.2809 3.83254 65.0069 4.16115C64.6766 4.49098 64.5127 4.92953 64.5678 5.36808C64.5678 6.35513 65.2271 7.01478 66.2718 7.01478H72.0419C72.6462 7.01478 73.0865 7.23345 73.4156 7.67322C73.7997 8.16675 73.966 8.77143 73.966 9.53981V11.1303H69.0755C68.306 11.1303 67.5904 11.2952 66.9323 11.5689C65.6124 12.1723 64.5702 13.2156 64.0197 14.5325C63.4693 15.9593 63.4693 17.496 64.0197 18.9228C64.295 19.5813 64.6791 20.1847 65.1733 20.6783C65.6675 21.1718 66.273 21.6116 66.9311 21.8852C67.5904 22.1601 68.3599 22.3238 69.0742 22.3238H75.1734C75.7239 22.3238 76.2731 22.1051 76.6584 21.7203C77.0425 21.3367 77.2627 20.7332 77.2627 20.1835V9.42865C77.2627 8.66027 77.1526 7.94564 76.8786 7.23345C76.656 6.41132 76.2707 5.80786 75.8327 5.31311ZM73.9073 14.3675V18.8679H69.0167C68.7415 18.8679 68.4125 18.8141 68.1372 18.703C67.862 18.593 67.643 18.4281 67.4216 18.2094C67.2026 17.9908 67.0375 17.7709 66.9825 17.4948C66.8724 17.2199 66.8173 16.9451 66.8173 16.6165C66.8173 16.2879 66.8711 16.013 66.9825 15.7382C67.0926 15.4633 67.2577 15.2446 67.4216 15.0235C67.6406 14.8049 67.8608 14.64 68.1372 14.53C68.4125 14.4201 68.6877 14.3651 68.9605 14.3651H73.9073V14.3675ZM81.6567 3.1331C81.2175 3.1331 80.7772 3.29802 80.4481 3.62662C80.1178 3.95645 79.9539 4.395 79.9539 4.83355V20.5146C79.9539 20.9531 80.119 21.3929 80.3931 21.7215C80.9973 22.3799 82.0971 22.4361 82.7552 21.7753L82.809 21.7215C83.1393 21.3917 83.3032 20.8994 83.3032 20.4596V4.83355C83.3032 4.34003 83.1381 3.90026 82.809 3.57165C82.4799 3.29679 82.0958 3.13188 81.6567 3.13188V3.1331ZM93.526 19.4726L88.3601 12.8882L92.9767 6.63243C93.252 6.24885 93.3608 5.8103 93.307 5.37053C93.2532 4.93198 93.0318 4.5484 92.6477 4.27232C92.3174 3.99746 91.8244 3.88874 91.4391 3.94249C90.9999 3.99624 90.6158 4.27232 90.3394 4.60092L84.9534 11.8999C84.5142 12.5034 84.5142 13.3829 85.0072 13.9852L90.9424 21.6128C91.4929 22.3274 92.5351 22.4911 93.2507 21.9426C93.2507 21.9426 93.3046 21.9426 93.3046 21.8889C93.9639 21.2842 94.074 20.2409 93.526 19.4726Z" fill="#4F525E"/>
</g>
</g>
</svg>
